<svg width="200" height="200" viewBox="0 0 200 200" fill="none" xmlns="http://www.w3.org/2000/svg">
<path d="M5.48675 48.2746C17.7689 29.5949 26.9095 18.1312 42.2817 0C42.3186 44.2605 52.7116 63.8775 87.5016 90.7216C76.4125 104.646 67.9977 116.894 73.715 133.505C79.4034 150.032 102.943 179.381 101.84 192.783C101.148 201.19 102.843 199.05 99.3026 192.852C92.872 181.594 81.9162 173.535 72.9054 164.212C68.6858 159.846 64.9401 156.25 62.995 154.413C62.0572 153.528 61.1412 152.636 60.2378 151.715C55.37 146.755 38.2416 129.52 24.6349 118.557C7.09683 101.653 -0.110662 89.5379 0.00128275 65.6039C0.0301827 59.425 2.09208 53.4375 5.48675 48.2746Z" fill="#686868"/>
<path d="M132.328 115.919C128.163 106.404 125.387 98.6222 121.692 86.5979C90.712 92.1161 78.6292 100.148 76.9998 121.539C76.4025 129.381 79.1044 137.036 83.0966 143.812L97.9794 169.072C103.572 181.151 103.732 187.53 104.039 199.746L104.045 200C111.148 187.437 117.469 180.379 128.861 165.979C135.091 155.5 137.646 147.83 137.336 135.492C137.166 128.7 135.052 122.143 132.328 115.919Z" fill="black"/>
<path d="M152.023 85.567L200 35.0515C200 35.0515 188.971 30.1546 168.567 31.4433C148.162 32.732 130.516 46.3917 130.516 46.3917C130.516 46.3917 122.042 52.6844 112.869 63.402C104.045 73.7113 94.6706 88.6598 94.6706 88.6598C94.6706 88.6598 99.0823 84.0206 123.347 82.4742C147.611 80.9278 152.023 85.567 152.023 85.567Z" fill="#9D9D9D"/>
</svg>
