<svg width="700" height="284" viewBox="0 0 700 284" fill="none" xmlns="http://www.w3.org/2000/svg">
<path d="M252.6 125H262.3C264.833 125 266.9 125.133 268.5 125.4C270.1 125.6 271.5 126.1 272.7 126.9C273.9 127.7 274.8 128.6 275.4 129.6C276 130.533 276.467 132.067 276.8 134.2C277.333 137.2 277.6 141.4 277.6 146.8C277.6 152.2 277.567 155.867 277.5 157.8C277.433 159.667 277.3 161.667 277.1 163.8C276.967 165.933 276.667 167.5 276.2 168.5C275.8 169.5 275.233 170.533 274.5 171.6C273.833 172.6 272.933 173.3 271.8 173.7C269.333 174.567 266.167 175 262.3 175H262.1V137.3C262.1 137.167 262.1 136.767 262.1 136.1C262.1 135.433 262.067 134.867 262 134.4C261.667 133.133 260.333 132.5 258 132.5H252.6V125ZM249.6 125V162.7C249.6 162.833 249.6 163.233 249.6 163.9C249.6 164.567 249.667 165.133 249.8 165.6C250.067 166.867 251.367 167.5 253.7 167.5H259.1V175H249.4C246.867 175 244.8 174.9 243.2 174.7C241.6 174.433 240.2 173.9 239 173.1C237.8 172.3 236.9 171.433 236.3 170.5C235.7 169.5 235.2 167.933 234.8 165.8C234.333 162.8 234.1 158.6 234.1 153.2C234.1 147.8 234.133 144.167 234.2 142.3C234.267 140.367 234.367 138.333 234.5 136.2C234.7 134.067 235 132.5 235.4 131.5C235.867 130.5 236.433 129.5 237.1 128.5C237.833 127.433 238.767 126.7 239.9 126.3C242.367 125.433 245.533 125 249.4 125H249.6ZM288.511 125.1H294.611C297.544 125.1 299.744 125.833 301.211 127.3C302.744 128.7 303.511 130.533 303.511 132.8V175H292.111C291.044 175 290.178 174.633 289.511 173.9C288.844 173.167 288.511 172.2 288.511 171V125.1ZM289.211 103.8C289.944 103.067 292.078 102.7 295.611 102.7C299.144 102.7 301.278 103.067 302.011 103.8C302.744 104.467 303.111 106.467 303.111 109.8C303.111 113.133 302.711 115.167 301.911 115.9C301.178 116.633 299.078 117 295.611 117C292.144 117 290.011 116.633 289.211 115.9C288.478 115.167 288.111 113.133 288.111 109.8C288.111 106.467 288.478 104.467 289.211 103.8ZM339.276 132.5H333.876C332.142 132.5 331.009 132.733 330.476 133.2C330.009 133.667 329.776 134.433 329.776 135.5V164.6C329.776 165.6 330.009 166.333 330.476 166.8C331.009 167.267 332.142 167.5 333.876 167.5H339.276V175H329.576C322.976 175 318.909 173.867 317.376 171.6C316.642 170.533 316.042 169.5 315.576 168.5C315.176 167.5 314.909 165.933 314.776 163.8C314.442 159.933 314.276 155.633 314.276 150.9C314.276 146.167 314.309 142.767 314.376 140.7C314.442 138.567 314.642 136.433 314.976 134.3C315.376 132.1 315.876 130.533 316.476 129.6C317.076 128.6 317.976 127.7 319.176 126.9C320.376 126.1 321.776 125.6 323.376 125.4C324.976 125.133 327.042 125 329.576 125H339.276V132.5ZM342.276 102.7H348.376C351.309 102.7 353.509 103.433 354.976 104.9C356.509 106.3 357.276 108.133 357.276 110.4V167.3C357.276 169.567 356.509 171.433 354.976 172.9C353.509 174.3 351.309 175 348.376 175H342.276V102.7ZM234.8 215.1H240.9C243.833 215.1 246.033 215.833 247.5 217.3C249.033 218.7 249.8 220.533 249.8 222.8V265H238.4C237.333 265 236.467 264.633 235.8 263.9C235.133 263.167 234.8 262.2 234.8 261V215.1ZM235.5 193.8C236.233 193.067 238.367 192.7 241.9 192.7C245.433 192.7 247.567 193.067 248.3 193.8C249.033 194.467 249.4 196.467 249.4 199.8C249.4 203.133 249 205.167 248.2 205.9C247.467 206.633 245.367 207 241.9 207C238.433 207 236.3 206.633 235.5 205.9C234.767 205.167 234.4 203.133 234.4 199.8C234.4 196.467 234.767 194.467 235.5 193.8ZM274.965 215V233.3C274.965 234.433 275.132 235.233 275.465 235.7C275.798 236.1 276.665 236.3 278.065 236.3H283.665V243.8H270.865C263.598 243.8 259.965 240.233 259.965 233.1V226.1C259.965 221.7 261.065 218.767 263.265 217.3C265.532 215.767 269.432 215 274.965 215ZM275.165 249.2V254.5C275.165 255.633 275.332 256.433 275.665 256.9C275.998 257.3 276.865 257.5 278.265 257.5H283.665V265H271.065C263.798 265 260.165 261.433 260.165 254.3V251.3C260.165 250.3 260.265 249.733 260.465 249.6C260.732 249.467 260.898 249.4 260.965 249.4C261.032 249.333 261.198 249.3 261.465 249.3C261.798 249.233 261.998 249.2 262.065 249.2C266.465 249.2 270.832 249.2 275.165 249.2ZM286.665 236.3H290.765C298.032 236.3 301.665 239.867 301.665 247V253.9C301.665 258.3 300.532 261.267 298.265 262.8C296.065 264.267 292.198 265 286.665 265V236.3ZM277.965 215H290.565C297.832 215 301.465 218.567 301.465 225.7V230.9C296.998 230.9 293.598 230.9 291.265 230.9C288.932 230.9 287.732 230.9 287.665 230.9C287.598 230.833 287.465 230.8 287.265 230.8C287.132 230.733 287.032 230.667 286.965 230.6C286.898 230.533 286.832 230.467 286.765 230.4C286.698 230.267 286.665 230.133 286.665 230C286.532 229.467 286.465 229.067 286.465 228.8V225.5C286.465 224.367 286.298 223.6 285.965 223.2C285.632 222.733 284.765 222.5 283.365 222.5H277.965V215ZM311.748 215H323.148C324.215 215 325.082 215.367 325.748 216.1C326.415 216.833 326.748 217.8 326.748 219V254.5C326.748 255.567 326.982 256.333 327.448 256.8C327.982 257.267 329.115 257.5 330.848 257.5H336.648V265H322.648C315.382 265 311.748 261.433 311.748 254.3V215ZM358.648 264.3C358.648 264.767 358.482 265 358.148 265H348.048C345.115 265 342.882 264.3 341.348 262.9C339.882 261.433 339.148 259.567 339.148 257.3V215H350.548C351.615 215 352.482 215.367 353.148 216.1C353.815 216.833 354.148 217.8 354.148 219V253.7C354.148 255.767 354.582 256.933 355.448 257.2C355.915 257.4 356.548 257.5 357.348 257.5H357.848C358.382 257.5 358.648 257.733 358.648 258.2V264.3ZM391.034 222.5H385.634C383.567 222.5 382.4 222.867 382.134 223.6C381.734 224.467 381.534 225.7 381.534 227.3V252.7C381.534 252.833 381.534 253.233 381.534 253.9C381.534 254.567 381.6 255.133 381.734 255.6C382 256.867 383.3 257.5 385.634 257.5H391.034V265H381.334C378.8 265 376.734 264.9 375.134 264.7C373.534 264.433 372.134 263.9 370.934 263.1C369.734 262.3 368.834 261.433 368.234 260.5C367.634 259.5 367.134 257.933 366.734 255.8C366.267 252.8 366.034 248.6 366.034 243.2C366.034 237.8 366.067 234.167 366.134 232.3C366.2 230.367 366.3 228.333 366.434 226.2C366.634 224.067 366.934 222.5 367.334 221.5C367.8 220.5 368.367 219.5 369.034 218.5C369.767 217.433 370.7 216.7 371.834 216.3C374.3 215.433 377.467 215 381.334 215H391.034V222.5ZM413.534 264.3C413.534 264.767 413.4 265 413.134 265H404.934C401.2 265 398.434 264.133 396.634 262.4C394.9 260.667 394.034 257.833 394.034 253.9V215H398.134C402.334 215 405.2 216 406.734 218C408.267 219.933 409.034 222.5 409.034 225.7V253.7C409.034 255.767 409.467 256.933 410.334 257.2C410.8 257.4 411.434 257.5 412.234 257.5H412.734C413.267 257.5 413.534 257.733 413.534 258.2V264.3ZM442.721 264.3C442.721 264.767 442.554 265 442.221 265H432.121C428.388 265 425.621 264.133 423.821 262.4C422.088 260.667 421.221 257.833 421.221 253.9V192.8H427.321C430.254 192.8 432.454 193.533 433.921 195C435.454 196.4 436.221 198.233 436.221 200.5V253.7C436.221 255.767 436.654 256.933 437.521 257.2C437.988 257.4 438.621 257.5 439.421 257.5H441.921C442.454 257.5 442.721 257.733 442.721 258.2V264.3ZM449.644 215.1H455.744C458.677 215.1 460.877 215.833 462.344 217.3C463.877 218.7 464.644 220.533 464.644 222.8V265H453.244C452.177 265 451.31 264.633 450.644 263.9C449.977 263.167 449.644 262.2 449.644 261V215.1ZM450.344 193.8C451.077 193.067 453.21 192.7 456.744 192.7C460.277 192.7 462.41 193.067 463.144 193.8C463.877 194.467 464.244 196.467 464.244 199.8C464.244 203.133 463.844 205.167 463.044 205.9C462.31 206.633 460.21 207 456.744 207C453.277 207 451.144 206.633 450.344 205.9C449.61 205.167 449.244 203.133 449.244 199.8C449.244 196.467 449.61 194.467 450.344 193.8ZM503.609 215H513.309C515.709 215 516.909 216.367 516.909 219.1V233.2C516.909 238.267 516.375 241.267 515.309 242.2C513.775 243.4 511.675 244 509.009 244H493.409V236.5H498.809C500.209 236.5 501.075 236.3 501.409 235.9C501.742 235.433 501.909 234.667 501.909 233.6V216.9C501.909 215.9 502.075 215.333 502.409 215.2C502.742 215.067 503.142 215 503.609 215ZM490.409 265H481.509C477.442 265 475.409 262.967 475.409 258.9V243.2C475.409 241.133 475.809 239.5 476.609 238.3C477.409 237.1 478.975 236.5 481.309 236.5H490.409V265ZM516.909 249.1V259.5C516.909 263.167 515.075 265 511.409 265H493.409V257.5H498.809C500.209 257.5 501.075 257.3 501.409 256.9C501.742 256.433 501.909 255.633 501.909 254.5V249.1H516.909ZM499.109 222.5H493.709C492.309 222.5 491.442 222.733 491.109 223.2C490.775 223.6 490.609 224.367 490.609 225.5V230.9H475.609V220.5C475.609 216.833 477.442 215 481.109 215H499.109V222.5ZM542.666 265H542.466C535.866 265 531.8 263.867 530.266 261.6C529.533 260.533 528.933 259.5 528.466 258.5C528.066 257.5 527.8 255.933 527.666 253.8C527.333 249.933 527.166 245.633 527.166 240.9C527.166 236.167 527.2 232.767 527.266 230.7C527.333 228.567 527.533 226.433 527.866 224.3C528.266 222.1 528.766 220.533 529.366 219.6C529.966 218.6 530.866 217.7 532.066 216.9C533.266 216.1 534.666 215.6 536.266 215.4C537.866 215.133 539.933 215 542.466 215H542.666V265ZM569.266 249.2V254.3C569.266 261.433 565.633 265 558.366 265H545.766V257.5H551.166C552.566 257.5 553.433 257.3 553.766 256.9C554.1 256.433 554.266 255.633 554.266 254.5V251.3C554.266 250.3 554.366 249.733 554.566 249.6C554.833 249.467 555 249.4 555.066 249.4C555.133 249.333 555.3 249.3 555.566 249.3C555.9 249.233 556.133 249.2 556.266 249.2C560.6 249.2 564.933 249.2 569.266 249.2ZM545.766 215H557.366C561.966 215 565.1 215.9 566.766 217.7C568.433 219.5 569.266 222.167 569.266 225.7V234.5C569.266 240.5 566 243.5 559.466 243.5H544.766V236H550.166C551.766 236 552.833 235.8 553.366 235.4C553.966 235 554.266 234.233 554.266 233.1V225.5C554.266 224.367 554.1 223.6 553.766 223.2C553.433 222.733 552.566 222.5 551.166 222.5H545.766V215ZM590.52 215H602.52C602.92 215 603.12 215.233 603.12 215.7V221.8C603.12 222.267 602.853 222.5 602.32 222.5H597.82C596.22 222.5 595.286 222.8 595.02 223.4C594.753 224.267 594.62 225.233 594.62 226.3V257.3C594.62 259.567 593.853 261.433 592.32 262.9C590.853 264.3 588.653 265 585.72 265H579.62V226.1C579.62 222.167 580.486 219.333 582.22 217.6C584.02 215.867 586.786 215 590.52 215Z" fill="#686868"/>
<path fill-rule="evenodd" clip-rule="evenodd" d="M60.04 0C37.3189 26.7992 24.1851 43.3403 5.62827 71.8568C2.25814 77.0357 0.230011 83.0272 0.0648722 89.2039C-0.763618 120.192 6.29319 137.554 24.1285 157.246L78.5193 82.3298C64.9653 60.7224 60.0702 36.1496 60.04 0ZM83.9298 90.1965L30.436 163.877C31.8933 165.345 33.4082 166.834 34.9815 168.351C54.8692 184.375 80.0548 209.834 86.0999 216.009C87.002 216.931 87.9215 217.827 88.8615 218.71C92.1229 221.774 100.556 229.829 109.171 239.149C112.764 243.035 116.584 246.736 120.406 250.438C125.946 255.804 131.489 261.173 136.344 267.115C143.151 275.444 144.225 281.637 144.353 281.617C144.43 281.605 144.157 279.29 144.612 273.753C145.547 262.389 134.006 242.951 122.835 224.136C115.298 211.442 107.93 199.032 104.675 189.577C96.5568 165.99 108.506 148.598 124.252 128.825C106.766 115.332 93.6195 103.125 83.9298 90.1965Z" fill="#686868"/>
<path fill-rule="evenodd" clip-rule="evenodd" d="M269.883 64.6377L215.872 121.505C215.872 121.505 211.61 117.023 190.778 116.685C199.302 110.301 207.023 100.538 213.136 86.2725C219.533 71.348 227.693 64.1155 235.879 61.0407C244.188 57.9199 253.345 58.77 262.236 61.6552C264.857 62.5056 267.418 63.5216 269.883 64.6377ZM276.407 57.7684C272.836 56.0098 269.005 54.3898 265.014 53.0947C255.03 49.8549 243.625 48.5175 232.715 52.6154C221.682 56.7594 211.968 66.1518 204.864 82.7273C198.406 97.7958 190.33 106.65 182.126 111.699C173.912 116.754 165.192 118.225 157.066 117.879C151.4 117.638 146.07 116.513 141.509 115.133C146.512 107.765 153.507 97.9373 160.274 90.0309C173.3 74.8118 185.332 65.8762 185.332 65.8762C185.332 65.8762 210.391 46.4794 239.365 44.6494C268.339 42.8195 284 49.7731 284 49.7731L276.407 57.7684ZM136.336 122.925C135.122 124.797 134.432 125.897 134.432 125.897C134.432 125.897 135.355 124.926 138.441 123.606C137.719 123.383 137.017 123.156 136.336 122.925Z" fill="#9D9D9D"/>
<path fill-rule="evenodd" clip-rule="evenodd" d="M172.803 122.969C178.55 141.672 182.731 153.147 189.654 168.545C192.44 174.741 194.445 181.312 194.837 188.094C196 208.215 192.532 219.628 182.983 235.691C180.022 239.433 177.303 242.826 174.774 245.982C163.483 260.068 155.984 269.425 147.745 284L147.736 283.64C147.3 266.293 147.073 257.235 139.131 240.082L115.447 199.884C111.454 193.109 108.909 185.474 109.094 177.612C109.899 143.437 126.464 131.223 172.803 122.969ZM153.5 217C164.27 217 173 203.121 173 186C173 168.879 164.27 155 153.5 155C142.73 155 134 168.879 134 186C134 203.121 142.73 217 153.5 217Z" fill="black"/>
</svg>
