<svg width="65" height="65" viewBox="0 0 65 65" fill="none" xmlns="http://www.w3.org/2000/svg">
<path fill-rule="evenodd" clip-rule="evenodd" d="M59.1732 23.9697C55.9586 28.7926 50.5227 32.2432 44.0414 32.9334C32.7457 34.1363 22.5519 26.4994 21.2729 15.8759C20.539 9.77994 22.9 4.02517 27.1799 0C19.4081 3.9327 14.5595 12.0335 15.6131 20.785C16.9953 32.2658 28.0118 40.519 40.219 39.219C49.5239 38.2281 56.8349 31.9727 59.1732 23.9697ZM36.4 43.4001C50.7594 43.4001 62.4 32.9693 62.4 20.1022C62.4 19.5199 62.3762 18.9426 62.3293 18.371C64.0452 22.5104 64.9999 27.1027 64.9999 31.9374C64.9999 31.9956 64.9998 32.0537 64.9995 32.1117C64.9998 32.1707 65 32.2297 65 32.2887C65 34.9303 64.6878 37.4987 64.0986 39.9586C60.8005 54.3425 48.8353 64.9999 34.5799 64.9999C33.9772 64.9999 33.3786 64.9809 32.7845 64.9433C32.6898 64.9441 32.5949 64.9445 32.5 64.9445C14.5507 64.9445 0 50.324 0 32.2887C0 28.2312 0.736472 24.3465 2.08243 20.7623C1.96631 21.8493 1.90674 22.9533 1.90674 24.0713C1.90674 28.4075 2.80281 32.5334 4.41905 36.2723C4.24812 34.8536 4.15994 33.4067 4.15994 31.9374C4.15994 21.4443 8.65744 12.0929 15.6716 6.03616C12.3632 9.94484 10.4 14.8181 10.4 20.1022C10.4 32.9693 22.0406 43.4001 36.4 43.4001ZM42.4035 25.4421C49.0742 24.6643 54.8918 21.7077 59.15 17.4253C57.8006 24.0409 52.0578 29.3812 44.5663 30.2549C38.2097 30.9961 32.2389 28.3298 28.7269 23.7752C32.9237 25.3642 37.5957 26.0028 42.4035 25.4421Z" fill="#272629"/>
</svg>
